<?xml version="1.0" encoding="utf-8"?>
<!-- Generator: Adobe Illustrator 19.0.0, SVG Export Plug-In . SVG Version: 6.00 Build 0)  -->
<svg version="1.1" xmlns="http://www.w3.org/2000/svg" xmlns:xlink="http://www.w3.org/1999/xlink" x="0px" y="0px"
	 viewBox="0 0 118 20" style="enable-background:new 0 0 118 20;" xml:space="preserve">
<style type="text/css">
	.st0{display:none;}
	.st1{fill:#FFFFFF;}
	.st2{font-family:'DINPro-Bold';}
	.st3{font-size:17.4619px;}
</style>
<g id="Layer_1">
	<rect id="XMLID_1_" class="st0" width="118" height="20"/>
</g>
<g id="Layer_2">
	<text id="XMLID_22_" transform="matrix(1 0 0 1 28.9366 15.9306)" class="st1 st2 st3">ANTCHAIN</text>
	<path id="XMLID_28_" class="st1" d="M21.2,15.2c1.2-1.3,1.9-3,2-4.8c0.1-2.1-0.8-4.1-2.3-5.4l0.6-0.6C23,5.7,24,7.7,24,10
		c0.1,2.3-0.9,4.5-2.4,6L21.2,15.2z"/>
	<path id="XMLID_27_" class="st1" d="M18.3,17.9c-0.8,0.2-1.6,0.4-2.4,0.4c-0.9,0-1.8-0.2-2.6-0.4c-0.1,0-0.2-0.1-0.3-0.2l0,0
		c-0.2-0.3,0-0.6,0.3-0.7h0c0.8,0.3,1.7,0.5,2.7,0.5c0.7,0,1.4-0.1,2-0.3L18.3,17.9z"/>
	<path id="XMLID_26_" class="st1" d="M17.7,3.1c-0.6-0.1-1.2-0.2-1.8-0.2c-3.3,0-6.1,2.2-7,5.2L8.1,8c0.9-3.4,4-5.9,7.7-6
		c0.8,0,1.6,0.1,2.4,0.3L17.7,3.1z"/>
	<path id="XMLID_18_" class="st1" d="M22.1,3.5c0,1.3-1,2.3-2.3,2.3s-2.3-1-2.3-2.3s1-2.3,2.3-2.3S22.1,2.2,22.1,3.5z M19.7,2
		c-0.9,0-1.5,0.7-1.5,1.5s0.7,1.5,1.5,1.5s1.5-0.7,1.5-1.5S20.6,2,19.7,2z"/>
	<path id="XMLID_19_" class="st1" d="M22.2,16.7c0,1.3-1,2.3-2.3,2.3s-2.3-1-2.3-2.3s1-2.3,2.3-2.3S22.2,15.4,22.2,16.7z M19.9,15.2
		c-0.9,0-1.5,0.7-1.5,1.5c0,0.9,0.7,1.5,1.5,1.5s1.5-0.7,1.5-1.5C21.4,15.9,20.7,15.2,19.9,15.2z"/>
	<path id="XMLID_24_" class="st1" d="M10.5,10c0,1.3-1,2.3-2.3,2.3s-2.3-1-2.3-2.3s1-2.3,2.3-2.3S10.5,8.7,10.5,10z M8.2,8.5
		c-0.9,0-1.5,0.7-1.5,1.5s0.7,1.5,1.5,1.5s1.5-0.7,1.5-1.5S9,8.5,8.2,8.5z"/>
	<rect id="XMLID_8_" x="19.1" y="5.6" class="st1" width="0.8" height="9.3"/>
	
		<rect id="XMLID_12_" x="13.5" y="8.5" transform="matrix(0.5039 -0.8638 0.8638 0.5039 -4.6129 18.6833)" class="st1" width="0.8" height="9.7"/>
	
		<rect id="XMLID_13_" x="13.7" y="2.1" transform="matrix(0.4988 0.8667 -0.8667 0.4988 13.0928 -8.7354)" class="st1" width="0.8" height="9.7"/>
	<circle id="XMLID_15_" class="st1" cx="11.1" cy="14.9" r="0.7"/>
	
		<ellipse id="XMLID_16_" transform="matrix(0.7658 0.6431 -0.6431 0.7658 12.6751 -3.219)" class="st1" cx="10.8" cy="15.8" rx="0.5" ry="0.4"/>
	
		<ellipse id="XMLID_17_" transform="matrix(0.9936 -0.1134 0.1134 0.9936 -1.782 1.1857)" class="st1" cx="9.5" cy="16.3" rx="1.1" ry="0.7"/>
	<path id="XMLID_7_" class="st1" d="M10.9,14.4l-0.2,0.1l-0.3-0.7c0-0.1,0-0.1,0.1-0.2l0,0c0.1,0,0.1,0,0.2,0.1L10.9,14.4z"/>
	<path id="XMLID_6_" class="st1" d="M11.4,14.5l-0.2,0l0.1-0.7c0-0.1,0.1-0.1,0.1-0.1l0,0c0.1,0,0.1,0.1,0.1,0.1L11.4,14.5z"/>
	<path id="XMLID_5_" class="st1" d="M10.1,17.4L10.1,17.4c-0.1,0-0.1,0-0.1-0.1l-0.2-0.6l0.2-0.1l0.2,0.6
		C10.2,17.3,10.1,17.4,10.1,17.4z"/>
	<path id="XMLID_20_" class="st1" d="M11.5,16.6L11.5,16.6c-0.1,0.1-0.1,0.1-0.2,0l-0.6-0.5l0.2-0.2l0.6,0.5
		C11.6,16.5,11.6,16.6,11.5,16.6z"/>
</g>
</svg>
